<svg width="48" height="48" viewBox="0 0 48 48" fill="none" xmlns="http://www.w3.org/2000/svg">
<rect width="48" height="48" rx="24" fill="#31363F"/>
<path d="M23.8054 37C21.7746 37 19.9667 36.7132 18.3815 36.1396C16.7963 35.5726 15.4563 34.7386 14.3613 33.6375C13.2663 32.543 12.4324 31.2046 11.8594 29.6223C11.2865 28.0399 11 26.24 11 24.2225C11 22.2314 11.2865 20.4249 11.8594 18.803C12.4387 17.1811 13.2823 15.7899 14.39 14.6295C15.4977 13.4625 16.8505 12.5659 18.4484 11.9395C20.0526 11.3132 21.8797 11 23.9296 11C25.8267 11 27.5201 11.2868 29.0097 11.8604C30.5058 12.434 31.7726 13.2516 32.8103 14.313C33.8543 15.3679 34.6469 16.6239 35.188 18.081C35.7355 19.5315 36.0061 21.1369 35.9997 22.8973C36.0061 24.1104 35.9042 25.2247 35.6941 26.24C35.4841 27.2554 35.153 28.1421 34.701 28.9003C34.2554 29.652 33.6697 30.2486 32.944 30.6904C32.2182 31.1255 31.3397 31.3728 30.3084 31.4321C29.5699 31.4914 28.9715 31.4354 28.5132 31.264C28.0548 31.0926 27.7047 30.8387 27.4628 30.5025C27.2272 30.1596 27.0744 29.7607 27.0044 29.3058H26.8898C26.737 29.7014 26.4378 30.0607 25.9922 30.3838C25.5466 30.7003 25.0023 30.9475 24.3593 31.1255C23.7227 31.2969 23.0447 31.3596 22.3253 31.3134C21.5741 31.2673 20.8611 31.086 20.1863 30.7695C19.5179 30.453 18.9226 29.9948 18.4006 29.3948C17.8849 28.7949 17.4775 28.0531 17.1783 27.1696C16.8855 26.2862 16.7359 25.2642 16.7295 24.1038C16.7359 22.9566 16.8918 21.9578 17.1974 21.1073C17.5093 20.2568 17.92 19.5414 18.4293 18.9612C18.9449 18.381 19.5179 17.9261 20.1481 17.5964C20.7783 17.2668 21.4118 17.0558 22.0484 16.9635C22.7678 16.8514 23.4489 16.8514 24.0919 16.9635C24.7349 17.0756 25.276 17.2569 25.7153 17.5074C26.1609 17.758 26.4378 18.0283 26.546 18.3184H26.6797V17.2107H29.6686V26.8631C29.675 27.318 29.7737 27.6707 29.9646 27.9213C30.1556 28.1718 30.4135 28.2971 30.7381 28.2971C31.1774 28.2971 31.5434 28.096 31.8363 27.6938C32.1355 27.2916 32.3583 26.6752 32.5047 25.8444C32.6575 25.0137 32.7339 23.9555 32.7339 22.6698C32.7339 21.4303 32.5748 20.3425 32.2564 19.4062C31.9445 18.4634 31.5052 17.6624 30.9387 17.003C30.3784 16.3371 29.7259 15.7965 28.9811 15.3811C28.2362 14.9658 27.4277 14.6625 26.5556 14.4713C25.6898 14.2801 24.7985 14.1845 23.8818 14.1845C22.2967 14.1845 20.912 14.435 19.7279 14.9361C18.5438 15.4306 17.5571 16.1262 16.7677 17.0228C15.9783 17.9195 15.3863 18.9711 14.9916 20.1776C14.6032 21.3776 14.4059 22.6863 14.3995 24.1038C14.4059 25.6664 14.616 27.051 15.0297 28.2575C15.4499 29.4575 16.0674 30.4662 16.8823 31.2838C17.6971 32.1013 18.703 32.7211 19.8998 33.143C21.0967 33.565 22.4717 33.776 24.0251 33.776C24.7572 33.776 25.4734 33.7199 26.1736 33.6078C26.8739 33.5023 27.5073 33.3705 28.0739 33.2122C28.6405 33.0606 29.0957 32.9123 29.4394 32.7672L30.3848 35.6352C29.9837 35.8726 29.4394 36.0934 28.7519 36.2978C28.0707 36.5088 27.3004 36.6769 26.441 36.8022C25.5879 36.9341 24.7094 37 23.8054 37ZM23.3662 28.0597C24.1428 28.0597 24.7604 27.9048 25.2187 27.5949C25.6834 27.285 26.0145 26.8268 26.2118 26.2202C26.4155 25.6071 26.511 24.8522 26.4983 23.9555C26.4919 23.1643 26.3933 22.4951 26.2023 21.9479C26.0177 21.3941 25.6962 20.9754 25.2378 20.6919C24.7858 20.4018 24.1556 20.2568 23.3471 20.2568C22.6404 20.2568 22.0388 20.4117 21.5423 20.7216C21.0521 21.0314 20.6765 21.4666 20.4155 22.027C20.1608 22.5808 20.0303 23.2335 20.024 23.9852C20.0303 24.684 20.1386 25.3466 20.3486 25.973C20.5587 26.5927 20.9057 27.0971 21.3895 27.4861C21.8733 27.8685 22.5322 28.0597 23.3662 28.0597Z" fill="white"/>
</svg>
